<mxfile host="65bd71144e">
    <diagram id="S2VxFf6e1flTDTteodSY" name="Page-1">
        <mxGraphModel dx="535" dy="466" grid="1" gridSize="10" guides="1" tooltips="1" connect="1" arrows="1" fold="1" page="1" pageScale="1" pageWidth="850" pageHeight="1100" math="0" shadow="0">
            <root>
                <mxCell id="0"/>
                <mxCell id="1" parent="0"/>
                <mxCell id="2" value="" style="shape=ext;double=1;rounded=1;whiteSpace=wrap;html=1;" vertex="1" parent="1">
                    <mxGeometry x="40" y="190" width="120" height="80" as="geometry"/>
                </mxCell>
                <mxCell id="3" value="imports" style="rounded=1;whiteSpace=wrap;html=1;" vertex="1" parent="1">
                    <mxGeometry x="220" y="210" width="120" height="30" as="geometry"/>
                </mxCell>
                <mxCell id="5" value="bootstrap" style="rounded=1;whiteSpace=wrap;html=1;" vertex="1" parent="1">
                    <mxGeometry x="220" y="330" width="120" height="30" as="geometry"/>
                </mxCell>
                <mxCell id="6" value="exports" style="rounded=1;whiteSpace=wrap;html=1;" vertex="1" parent="1">
                    <mxGeometry x="220" y="390" width="120" height="30" as="geometry"/>
                </mxCell>
                <mxCell id="7" value="providers" style="rounded=1;whiteSpace=wrap;html=1;" vertex="1" parent="1">
                    <mxGeometry x="220" y="270" width="120" height="30" as="geometry"/>
                </mxCell>
            </root>
        </mxGraphModel>
    </diagram>
</mxfile>